<svg xmlns="http://www.w3.org/2000/svg" width="760" height="210" viewBox="0 0 760 210"><rect width="100%" height="100%" fill="#fff"/><defs><marker id="a" markerWidth="10" markerHeight="8" refX="9" refY="4" orient="auto"><path d="M0,0 L10,4 L0,8 z" fill="#555"/></marker></defs><rect x="6" y="20" width="136" height="60" rx="8" fill="#eef3fb" stroke="#3b5b92" stroke-width="1.5"/><text x="74" y="56" text-anchor="middle" font-size="15" font-family="DB ChuanPim PSU, TH Sarabun New, Tahoma, sans-serif">รีเซ็ตระบบจำลอง</text><line x1="142" y1="50" x2="156" y2="50" stroke="#555" stroke-width="1.5" marker-end="url(#a)"/><rect x="157" y="20" width="136" height="60" rx="8" fill="#eef3fb" stroke="#3b5b92" stroke-width="1.5"/><text x="225" y="56" text-anchor="middle" font-size="15" font-family="DB ChuanPim PSU, TH Sarabun New, Tahoma, sans-serif">ติดตั้งกฎของกลุ่ม</text><line x1="293" y1="50" x2="307" y2="50" stroke="#555" stroke-width="1.5" marker-end="url(#a)"/><rect x="308" y="20" width="136" height="60" rx="8" fill="#eef3fb" stroke="#3b5b92" stroke-width="1.5"/><text x="376" y="56" text-anchor="middle" font-size="15" font-family="DB ChuanPim PSU, TH Sarabun New, Tahoma, sans-serif">วัดค่าตั้งต้น</text><line x1="444" y1="50" x2="458" y2="50" stroke="#555" stroke-width="1.5" marker-end="url(#a)"/><rect x="459" y="20" width="136" height="60" rx="8" fill="#eef3fb" stroke="#3b5b92" stroke-width="1.5"/><text x="527" y="56" text-anchor="middle" font-size="15" font-family="DB ChuanPim PSU, TH Sarabun New, Tahoma, sans-serif">รอบแรก</text><line x1="595" y1="50" x2="609" y2="50" stroke="#555" stroke-width="1.5" marker-end="url(#a)"/><rect x="610" y="20" width="136" height="60" rx="8" fill="#eef3fb" stroke="#3b5b92" stroke-width="1.5"/><text x="678" y="56" text-anchor="middle" font-size="15" font-family="DB ChuanPim PSU, TH Sarabun New, Tahoma, sans-serif">เก็บภาพรอบแรก</text><path d="M678,80 V105 H74 V128" fill="none" stroke="#555" stroke-width="1.5" marker-end="url(#a)"/><rect x="6" y="130" width="136" height="60" rx="8" fill="#eef3fb" stroke="#3b5b92" stroke-width="1.5"/><text x="74" y="166" text-anchor="middle" font-size="15" font-family="DB ChuanPim PSU, TH Sarabun New, Tahoma, sans-serif">รอบตอบกลับ</text><line x1="142" y1="160" x2="156" y2="160" stroke="#555" stroke-width="1.5" marker-end="url(#a)"/><rect x="157" y="130" width="136" height="60" rx="8" fill="#eef3fb" stroke="#3b5b92" stroke-width="1.5"/><text x="225" y="166" text-anchor="middle" font-size="15" font-family="DB ChuanPim PSU, TH Sarabun New, Tahoma, sans-serif">วัดค่าปลายทาง</text><line x1="293" y1="160" x2="307" y2="160" stroke="#555" stroke-width="1.5" marker-end="url(#a)"/><rect x="308" y="130" width="136" height="60" rx="8" fill="#eef3fb" stroke="#3b5b92" stroke-width="1.5"/><text x="376" y="166" text-anchor="middle" font-size="15" font-family="DB ChuanPim PSU, TH Sarabun New, Tahoma, sans-serif">ตรวจสภาพ runtime</text><line x1="444" y1="160" x2="458" y2="160" stroke="#555" stroke-width="1.5" marker-end="url(#a)"/><rect x="459" y="130" width="136" height="60" rx="8" fill="#eef3fb" stroke="#3b5b92" stroke-width="1.5"/><text x="527" y="166" text-anchor="middle" font-size="15" font-family="DB ChuanPim PSU, TH Sarabun New, Tahoma, sans-serif">ให้คะแนน + บันทึก</text></svg>